# xmcd
#
# Track frame offsets: 
#        150
#        23620
#        37822
#        65935
#        86669
#        100481
#        116992
#        139278
#        152987
#        173837
#        189579
#        211794
#        232112
#
# Disc length: 3244 seconds
#
# Revision: 3
# Processed by: cddbd v1.5.2PL0 Copyright (c) Steve Scherf et al.
# Submitted via: ExactAudioCopyFreeDBPlugin 1.0
#
DISCID=ba0caa0d
DTITLE=Various Artist - Nigeria Special Modern Highlife, Afro-Sounds 
DTITLE=& Nigerian Blues 1970-6 [CD2]
DYEAR=2007
DGENRE=Afrobeat - Funk - Highlife
TTITLE0=The Nigerian Police Force Band (The Force 7) - Asiko Mi Ni
TTITLE1=Godwin Ezike and The Ambassadors - Torri Wowo
TTITLE2=Opotopo (Easy Kabaka Brown) - Belema
TTITLE3=Dan Satch and His Atomic 8 Dance Band of Aba - Alabeke
TTITLE4=Popular Cooper and His All Beats Band - Arraino
TTITLE5=Collins Oke and His Odoligie Nobles Dance Band - Simini-Yaya
TTITLE6=Bola Johnson and His Easy Life Top Beats - Buroda Mase
TTITLE7=The Hykkers - I Want a Break Thru
TTITLE8=George Akaeze and His Augmented Hits - Business Before Pleasure
TTITLE9=Shadow Abraham with Mono Mono Friends - Omo Yen Wu Mi
TTITLE10=Leo Fadaka and The Heroes - Blak Sound
TTITLE11=Osayomore Joseph and The Creative 7 - Eguae Oba
TTITLE12=Etubom Rex Williams and His Nigerian Artistes - Akpaison
EXTD=
EXTT0=
EXTT1=
EXTT2=
EXTT3=
EXTT4=
EXTT5=
EXTT6=
EXTT7=
EXTT8=
EXTT9=
EXTT10=
EXTT11=
EXTT12=
PLAYORDER=
